{"title":"Sia (Sia Furler) - TV Is My Parent (2009).mp4","uid":11991709,"size":476571837,"categoryP":"video","categoryS":"music_videos","magnet":"?xt=urn:btih:b698c493f6b807aac09219a247af2ae4e5ec5f3a&amp;dn=Sia+%28Sia+Furler%29+-+TV+Is+My+Parent+%282009%29.mp4&amp;tr=udp%3A%2F%2Ftracker.openbittorrent.com%3A80&amp;tr=udp%3A%2F%2Fopen.demonii.com%3A1337&amp;tr=udp%3A%2F%2Ftracker.coppersurfer.tk%3A6969&amp;tr=udp%3A%2F%2Fexodus.desync.com%3A6969","seeders":1,"leechers":0,"uploader":"mikrovision","files":1,"time":1433533265,"description":"Format: MPEG-4\nSia (Sia Furler) - TV Is My Parent (2009) mp4\n\nWatch the Trailer here:\n\nHIRO BALLROOM CONCERT (12th September 2007)\n\nSetlist:\n\nButtons\nLittle Black Sandals\nLentil\nDay Too Soon\nSunday\nDestiny\nBreathe Me\nElectric Bird\nYou Have Been Loved\nAcademia\nThe Girls You Lost To Cocaine\nDistractions\n\nFormat profile : Base Media\nCodec ID : isom\nFile size : 454 MiB\nDuration : 58mn 20s\nOverall bit rate : 1 089 Kbps\nWriting application : Lavf54.3.100\n\nVideo\nID : 1\nFormat : AVC\nFormat/Info : Advanced Video Codec\nFormat profile : &lt;a class=&quot;__cf_email__&quot; href=&quot;/cdn-cgi/l/email-protection&quot; data-cfemail=&quot;632b0a040b232f504d53&quot;&gt;[email&amp;#160;protected]&lt;/a&gt;&lt;script data-cfhash='f9e31' type=&quot;text/javascript&quot;&gt;\n/* &lt;![CDATA[ */!function(){try{var t=&quot;currentScript&quot;in document?document.currentScript:function(){for(var t=document.getElementsByTagName(&quot;script&quot;),e=t.length;e--;)if(t[e].getAttribute(&quot;data-cfhash&quot;))return t[e]}();if(t&amp;&amp;t.previousSibling){var e,r,n,i,c=t.previousSibling,a=c.getAttribute(&quot;data-cfemail&quot;);if(a){for(e=&quot;&quot;,r=parseInt(a.substr(0,2),16),n=2;a.length-n;n+=2)i=parseInt(a.substr(n,2),16)^r,e+=String.fromCharCode(i);e=document.createTextNode(e),c.parentNode.replaceChild(e,c)}t.parentNode.removeChild(t);}}catch(u){}}()/* ]]&gt; */&lt;/script&gt;\nFormat settings, CABAC : Yes\nFormat settings, ReFrames : 4 frames\nCodec ID : avc1\nCodec ID/Info : Advanced Video Coding\nDuration : 58mn 19s\nBit rate : 953 Kbps\nWidth : 720 pixels\nHeight : 480 pixels\nDisplay aspect ratio : 16:9\nOriginal display aspect ratio : 16:9\nFrame rate mode : Constant\nFrame rate : 29.970 fps\nStandard : NTSC\nColor space : YUV\nChroma subsampling : 4:2:0\nBit depth : 8 bits\nScan type : Progressive\nBits/(Pixel*Frame) : 0.092\nStream size : 398 MiB (88%)\nWriting library : x264 core 120 r2164 da19765\n\nAudio\nID : 2\nFormat : AAC\nFormat/Info : Advanced Audio Codec\nFormat profile : LC\nCodec ID : 40\nDuration : 58mn 20s\nDuration_LastFrame : -9ms\nBit rate mode : Constant\nBit rate : 128 Kbps\nChannel(s) : 2 channels\nChannel positions : Front: L R\nSampling rate : 48.0 KHz\nCompression mode : Lossy\nDelay relative to video : 67ms\nStream size : 53.4 MiB (12%)","torrent":{"xt":"urn:btih:b698c493f6b807aac09219a247af2ae4e5ec5f3a","amp;dn":"Sia+%28Sia+Furler%29+-+TV+Is+My+Parent+%282009%29.mp4","amp;tr":["udp%3A%2F%2Ftracker.openbittorrent.com%3A80","udp%3A%2F%2Fopen.demonii.com%3A1337","udp%3A%2F%2Ftracker.coppersurfer.tk%3A6969","udp%3A%2F%2Fexodus.desync.com%3A6969"],"infoHash":"b698c493f6b807aac09219a247af2ae4e5ec5f3a","infoHashBuffer":{"type":"Buffer","data":[182,152,196,147,246,184,7,170,192,146,25,162,71,175,42,228,229,236,95,58]},"announce":[],"urlList":[]}}